<svg width="27" height="29" fill="none" xmlns="http://www.w3.org/2000/svg"><path d="M22.336 28.193a.58.58 0 00.58.575h2.844a.58.58 0 00.58-.575V25.9h-4.004v2.292zm3.628-20.904a13.237 13.237 0 00-1.109-2.98c-.197-.386-.836-.386-1.033 0A13.286 13.286 0 0022.35 9.99h3.98a13.225 13.225 0 00-.365-2.702zm-3.628 3.853h4.005v13.609h-4.005V11.142zm-7.464 10.262c-1.102 0-1.999.89-1.999 1.982s.897 1.981 2 1.981a1.992 1.992 0 001.998-1.981 1.992 1.992 0 00-1.999-1.982z" fill="#CAD3DB"/><path d="M0 2.057v25.611c0 .608.497 1.1 1.11 1.1h17.11c.612 0 1.11-.492 1.11-1.1V2.057c0-.747.303-1.533.725-2.058H2.075A2.067 2.067 0 000 2.057zm2.468 14.156h14.396c.348 0 .63.28.63.625a.628.628 0 01-.63.626H2.468a.628.628 0 01-.63-.626c0-.345.281-.625.63-.625zm-.63-3.74c0-.346.281-.626.63-.626h14.396c.348 0 .63.28.63.626a.628.628 0 01-.63.625H2.468a.628.628 0 01-.63-.625zm8.213 13.722H2.468a.628.628 0 01-.631-.625c0-.346.282-.626.63-.626h7.584c.348 0 .63.28.63.626a.628.628 0 01-.63.625zm0-4.365H2.468a.628.628 0 01-.631-.626c0-.345.282-.625.63-.625h7.584c.348 0 .63.28.63.625a.628.628 0 01-.63.626zm4.82 4.788c-1.799 0-3.261-1.45-3.261-3.233 0-1.782 1.462-3.232 3.26-3.232 1.798 0 3.26 1.45 3.26 3.232 0 1.783-1.462 3.233-3.26 3.233zM6.057 3.117h6.586c.349 0 .631.28.631.625a.628.628 0 01-.63.626H6.056a.628.628 0 01-.631-.626c0-.345.282-.625.631-.625zm10.807 4.365c.348 0 .63.28.63.626a.628.628 0 01-.63.625H2.468a.628.628 0 01-.63-.625c0-.346.281-.626.63-.626h14.396zm7.886-5.424v.863a1.621 1.621 0 00-.413-.051c-.667 0-1.26.35-1.55.915a14.385 14.385 0 00-1.613 6.622v.392h-.586V2.058c0-1.088.859-1.99 1.996-2.06h.087a2.07 2.07 0 012.078 2.06z" fill="#CAD3DB"/></svg>