<svg width="95" height="43" fill="none" xmlns="http://www.w3.org/2000/svg"><path d="M14.712 17.401l.455-.275c.067-.334-.066-.5-.389-.5-.466 0-.7.357-.7 1.065 0 .28.038.603.115.97.826.547 1.237 1.251 1.237 2.107 0 .855-.3 1.52-.896 1.993-.596.474-1.407.709-2.425.709-.423 0-.863-.044-1.319-.129-.477.301-.714.529-.714.68 0 .15.348.227 1.04.227h1.663c2.462 0 3.695.877 3.695 2.632 0 .947-.37 1.696-1.114 2.25-.745.555-1.904.83-3.477.83-2.681 0-4.022-.576-4.022-1.725 0-.624.419-1.054 1.256-1.293l.977.437a3.24 3.24 0 00-.13.889c0 .925.697 1.387 2.085 1.387.848 0 1.5-.158 1.955-.47.456-.311.686-.7.686-1.163 0-.463-.137-.771-.415-.929-.278-.158-.83-.235-1.652-.235h-1.577c-.878 0-1.507-.147-1.889-.437-.381-.29-.57-.65-.57-1.072 0-.426.137-.782.407-1.064.27-.287.756-.64 1.448-1.058-1.259-.356-1.888-1.17-1.888-2.452 0-.807.292-1.457.877-1.953.585-.495 1.467-.741 2.637-.741.703 0 1.307.135 1.807.403a3.544 3.544 0 01-.096-.789c0-.602.162-1.039.488-1.307a1.676 1.676 0 011.093-.404c.403 0 .726.107.97.316.244.21.367.5.367.863 0 .367-.097.639-.293.815a1.027 1.027 0 01-.707.268c-.278 0-.504-.074-.685-.217-.193-.15-.29-.356-.3-.628zm-3.451 3.022v.87c0 .72.063 1.211.188 1.468.126.257.315.386.57.386.256 0 .441-.125.552-.378.115-.254.17-.771.17-1.557v-.79c0-.84-.055-1.39-.162-1.655-.108-.264-.289-.396-.545-.396-.255 0-.448.135-.577.41-.134.276-.196.823-.196 1.642zm12.485-1.73c-.403 0-.755.257-1.059.774-.303.518-.455 1.131-.455 1.84v4.324h1.155v.29h-5.08v-.29h.896v-7.103h-.896v-.29h3.925v1.549c.14-.547.41-.97.814-1.267.4-.297.86-.444 1.367-.444.51 0 .925.143 1.244.43.318.286.481.69.481 1.211 0 .521-.118.922-.359 1.204-.24.28-.604.419-1.1.419-.496 0-.859-.162-1.092-.485-.233-.323-.263-.77-.089-1.34h.585c.278-.547.163-.822-.337-.822zm5.3 6.322c-.7-.716-1.048-1.71-1.048-2.985 0-1.274.393-2.25 1.181-2.93.785-.678 1.789-1.016 3.003-1.016 2.463 0 3.648 1.226 3.551 3.678h-4.591v.632c0 1.053.137 1.85.407 2.39.27.54.744.807 1.418.807 1.26 0 2.085-.668 2.474-2l.292.047c-.207.775-.577 1.377-1.114 1.806-.537.43-1.344.646-2.418.646-1.404-.003-2.455-.363-3.155-1.075zm2.11-3.576h1.678v-.789c0-.87-.052-1.465-.156-1.784-.103-.316-.31-.477-.618-.477-.31 0-.537.169-.685.506-.148.338-.218.922-.218 1.751v.793zm7.921 3.576c-.7-.716-1.052-1.71-1.052-2.985 0-1.274.393-2.25 1.182-2.93.785-.678 1.788-1.016 3.003-1.016 2.462 0 3.647 1.226 3.547 3.678h-4.591v.632c0 1.053.137 1.85.407 2.39.27.54.744.807 1.414.807 1.26 0 2.085-.668 2.474-2l.292.047c-.207.775-.577 1.377-1.114 1.806-.537.43-1.344.646-2.418.646-1.396-.003-2.444-.363-3.144-1.075zm2.107-3.576h1.677v-.789c0-.87-.051-1.465-.155-1.784-.104-.316-.311-.477-.619-.477-.31 0-.536.169-.684.506-.149.338-.219.922-.219 1.751v.793zm6.821-3.196h3.925v1.483c.174-.496.44-.892.796-1.193.36-.301.9-.452 1.63-.452 1.68 0 2.525.9 2.525 2.695v4.856h.91v.29h-4.606v-.29h.667v-5.245c0-.647-.045-1.061-.13-1.252-.085-.188-.244-.283-.47-.283-.348 0-.656.228-.918.68-.267.45-.4 1.001-.4 1.644v4.456h.7v.29h-4.63v-.29h.897V18.53h-.896v-.286zm12.757 6.772c-.7-.716-1.052-1.71-1.052-2.985 0-1.274.392-2.25 1.181-2.93.785-.678 1.789-1.016 3.003-1.016 2.463 0 3.648 1.226 3.551 3.678h-4.591v.632c0 1.053.137 1.85.407 2.39.27.54.744.807 1.418.807 1.26 0 2.085-.668 2.474-2l.292.047c-.207.775-.577 1.377-1.114 1.806-.537.43-1.344.646-2.418.646-1.4-.003-2.452-.363-3.151-1.075zm2.11-3.576h1.678v-.789c0-.87-.052-1.465-.156-1.784-.104-.316-.31-.477-.618-.477-.311 0-.537.169-.685.506-.148.338-.219.922-.219 1.751v.793zm12.227-2.746c-.4 0-.756.257-1.06.774-.303.518-.455 1.131-.455 1.84v4.324h1.156v.29h-5.08v-.29h.895v-7.103h-.896v-.29h3.925v1.549c.141-.547.411-.97.815-1.267.4-.297.859-.444 1.366-.444.511 0 .926.143 1.244.43.319.286.482.69.482 1.211 0 .521-.119.922-.36 1.204-.236.28-.603.419-1.1.419-.492 0-.858-.162-1.092-.485-.233-.323-.262-.77-.088-1.34h.585c.274-.547.159-.822-.337-.822zm3.921-.161v-.29h4.721v.29h-.878l1.774 5.36 1.889-5.36h-1.093v-.29h2.296v.29h-.815l-3.043 8.7c-.36 1.01-.76 1.719-1.204 2.122-.444.404-.989.606-1.63.606-.64 0-1.143-.147-1.514-.437-.37-.29-.551-.66-.551-1.112 0-.452.118-.797.359-1.032.237-.238.552-.356.944-.356.9 0 1.352.371 1.352 1.113 0 .161-.034.356-.097.58h-.57c-.089.246-.096.451-.033.613.066.161.21.242.44.242.445 0 .841-.217 1.19-.653.347-.437.677-1.102.992-1.994l.359-1.002h-1.433l-2.785-7.393h-.67v.003zM47.339 8.797a.216.216 0 01-.13-.04.229.229 0 01-.063-.32c.822-1.197.955-2.11 1.081-2.995.048-.32.093-.65.174-.988.193-.815.437-1.49.748-2.048a33.998 33.998 0 01-1.122-.188c-.603-.106-1.23-.216-1.848-.271-1.07-.092-2.573-.022-3.632.848-.27.224-.607.583-.666 1.042a.237.237 0 01-.26.199.229.229 0 01-.2-.257c.082-.606.496-1.061.834-1.337 1.18-.969 2.806-1.053 3.969-.954.637.055 1.274.169 1.889.275.429.077.866.154 1.307.21a3.95 3.95 0 01.896-.937c.537-.4 1.377-.712 2.114-.392.278.12.574.378.57.741-.003.286-.2.55-.555.745-.593.323-1.315.44-2.288.382a11.667 11.667 0 01-.504-.044c-.33.547-.589 1.237-.792 2.093-.075.315-.119.62-.167.947-.137.936-.278 1.905-1.16 3.19a.241.241 0 01-.195.099zm2.606-6.762c.078.007.16.01.237.018.878.055 1.522-.048 2.037-.327.093-.05.315-.187.315-.345 0-.128-.145-.25-.293-.312-.559-.238-1.218.019-1.651.338a3.575 3.575 0 00-.645.628z" fill="#3A5B62"/><path d="M50.037 8.874a.636.636 0 01-.374-.114c-.178-.125-.282-.345-.293-.624-.014-.419.137-.793.286-1.157.103-.253.203-.491.24-.737 0-.008 0-.011.004-.019a.469.469 0 00-.13.052c-.77.455-1.596 1.343-2.203 2.378a.236.236 0 01-.318.085.231.231 0 01-.086-.316c.648-1.101 1.533-2.052 2.37-2.544.319-.187.63-.158.77.077.086.136.06.29.052.356-.048.301-.159.577-.27.845-.137.33-.263.646-.252.965.004.129.04.228.096.264.078.056.241.03.437-.073.197-.103.39-.224.582-.341l.092-.06c.185-.113.363-.23.545-.355-.07-.477.081-1.043.4-1.399a1.062 1.062 0 011.103-.338.518.518 0 01.3.195c.096.143.096.33 0 .529-.185.374-.533.638-.837.873l-.107.085c-.104.08-.211.161-.319.238a.63.63 0 00.237.287c.096.055.226.08.419.084a2.764 2.764 0 001.722-.584.22.22 0 01.177-.047.231.231 0 01.156.099s.666.749 4.336.749h5.254a.231.231 0 110 .462h-5.254c-3.044 0-4.158-.506-4.54-.782a3.305 3.305 0 01-1.855.566c-.189 0-.433-.022-.648-.147a1.046 1.046 0 01-.381-.415c-.148.1-.297.198-.448.29l-.093.059c-.2.125-.404.25-.611.36-.23.113-.411.154-.56.154zm2.773-2.636a.617.617 0 00-.481.224c-.17.19-.278.484-.296.767.037-.03.078-.059.114-.088l.112-.084c.277-.213.566-.434.703-.713a.238.238 0 00.026-.084.59.59 0 00-.178-.022zM37.077 8.874h-3.999a.231.231 0 110-.463h4c4.272 0 5.331-.855 5.342-.863a.254.254 0 01.182-.055.234.234 0 01.163.096c.677.976 1.3.708 1.322.694.648-.199.955-.925 1.103-1.506.134-.513.215-1.05.293-1.57.078-.504.155-1.021.281-1.528.315-1.277.907-2.232 1.718-2.764a.234.234 0 01.322.066.23.23 0 01-.066.32c-.9.587-1.326 1.677-1.522 2.488-.119.485-.196.995-.27 1.487-.082.532-.163 1.08-.3 1.615-.256.995-.737 1.627-1.389 1.821-.004.004-.87.411-1.74-.679-.493.275-1.933.84-5.44.84zm-13.8 29.046l-.319 1.01-.548-.17.863-2.72 1 .312c.322.103.544.253.659.459.115.206.133.44.048.705-.082.26-.233.44-.452.54-.218.102-.485.102-.796.003l-.455-.14zm1.144-.58c.044-.136.04-.254-.015-.35-.052-.095-.163-.168-.333-.223l-.393-.121-.266.837.392.12c.322.104.526.016.615-.263zm4.243.235l-.397 1.626c-.051.217-.044.393.026.525.07.132.197.22.378.264.181.044.33.022.456-.062.122-.084.21-.235.262-.455l.397-1.627.555.133-.396 1.626a1.385 1.385 0 01-.304.617.944.944 0 01-.496.297 1.325 1.325 0 01-.611-.007c-.337-.081-.578-.243-.73-.492-.151-.246-.18-.562-.088-.947l.396-1.627.552.129zm5.721 4.078l-.474-1.208-.248-.04-.19 1.093-.566-.095.482-2.812 1.08.183c.33.055.567.177.712.367a.826.826 0 01.152.672.812.812 0 01-.27.503.9.9 0 01-.567.198l.514 1.241-.625-.102zm-.66-1.638l.467.077c.322.055.511-.058.56-.345a.444.444 0 00-.064-.337c-.066-.089-.181-.147-.348-.177l-.466-.077-.148.86zm5.277-.165l-.077.735 1.01.106-.044.433-1.01-.106-.082.763 1.133.118-.048.455-1.707-.176.3-2.834 1.707.176-.048.451-1.134-.12zm10.272 2.835l-.574.004-1.3-1.928.016 1.939-.574.003-.023-2.849.574-.003 1.3 1.946-.015-1.953.574-.004.022 2.845zm5.029-.849l-1.148.088-.159.588-.603.047.833-2.892.655-.052 1.274 2.728-.604.047-.248-.554zm-.189-.418L53.6 40.25l-.33 1.234.844-.066zm5.658-2.529l.067.447-.785.114.348 2.375-.57.081-.348-2.375-.782.114-.066-.448 2.136-.308zm3.44-.632l.355 1.634c.048.22.13.37.252.459.119.088.274.114.456.073.181-.037.307-.121.381-.253.074-.129.085-.305.04-.521l-.355-1.634.56-.117.355 1.633c.055.257.055.485-.004.683a.942.942 0 01-.314.48c-.152.126-.338.21-.556.254-.337.074-.63.03-.874-.128s-.41-.43-.492-.815l-.356-1.634.552-.114zm6.936 1.215l-.956-.884-.244.07.311 1.068-.552.158-.796-2.739 1.052-.301c.322-.092.589-.084.8.022.214.106.355.286.43.54a.827.827 0 01-.023.569c-.074.172-.215.312-.422.422l1.007.9-.607.175zm-1.307-1.189l.455-.128c.315-.092.433-.272.352-.551a.425.425 0 00-.204-.275c-.1-.052-.23-.056-.389-.008l-.455.129.24.833zm4.673-2.416l.252.694.959-.341.148.41-.96.342.264.723 1.073-.381.156.43-1.615.572-.97-2.684 1.615-.572.155.425-1.077.382zM52.815 32.05h-9.546v.921h9.546v-.921zM28.187 8.14c-1.2-.052-2.551-.148-3.91-.412-.248-.617-.378-1.277-.504-1.975a27.24 27.24 0 00-.126-.668c-.185-.9-.5-2.038-1.307-2.845-.066-.066-.237-.239-.488-.239h-.008c-.27 0-.496.187-.626.51-.289.738-.226 1.539-.152 2.078.119.878.337 1.546.686 2.097.103.165.222.315.348.451a10.793 10.793 0 01-1.73-.811.328.328 0 00-.159-.125c-.278-1.593-.578-3.227-1.103-4.794C18.93.874 18.67.302 18.093.07c-.222-.088-.44-.084-.615.011-.281.158-.33.47-.348.591-.148.984.056 2.192.489 3.312-.918-.925-1.888-1.847-3.08-2.49-.36-.194-.838-.407-1.349-.352a.346.346 0 00-.31.338c-.016.646.362 1.244 1.155 1.84 1.233.92 2.899 1.424 3.584 1.6.289.348.611.679.966.987-1.692-.308-3.484-.007-4.973.885a.34.34 0 00-.166.312.349.349 0 00.196.294c.611.29 1.274.381 1.93.381.429 0 .855-.04 1.255-.091 1.262-.158 2.28-.408 3.188-.768.53.309 1.096.584 1.707.815-.744.28-1.522.61-2.177 1.124-.76.594-1.24 1.358-1.352 2.155-.056.389.13.565.244.635a.498.498 0 00.267.073.786.786 0 00.37-.11c1.467-.778 2.677-1.935 3.848-3.05l.359-.342a19.051 19.051 0 00.666.154c1.47.305 2.926.408 4.214.463h.015c.185 0 .34-.147.348-.33a.356.356 0 00-.337-.368zM14.453 2.756c-.418-.312-.685-.609-.803-.899.196.051.385.143.559.239.837.451 1.57 1.064 2.258 1.718-.792-.305-1.5-.672-2.014-1.058zm7.413.004c0-.004 0-.004.004-.007.663.679.933 1.674 1.092 2.47.045.217.085.437.126.658.082.444.163.899.285 1.343a2.3 2.3 0 01-1.033-.91c-.292-.463-.481-1.043-.585-1.821-.1-.745-.066-1.278.111-1.733zM17.82.768a.683.683 0 01.011-.063c.311.125.485.533.611.91.437 1.315.719 2.695.963 4.054-.008-.008-.015-.011-.022-.019C18.286 4.38 17.6 2.247 17.819.768zm-1.081 6.23c-.652.08-1.374.135-2.044.007 1.255-.54 2.7-.68 4.028-.386a14.56 14.56 0 01-1.984.379zm2.184 3.905c.134-.546.504-1.075 1.056-1.505.551-.43 1.2-.72 2-1.02.073-.026.144-.055.214-.077-1.01.954-2.062 1.923-3.27 2.602zm64.529-4.122a7.207 7.207 0 00-4.973-.884c.355-.309.677-.639.966-.988.685-.176 2.348-.679 3.585-1.6.792-.591 1.17-1.193 1.155-1.84a.349.349 0 00-.31-.337c-.52-.052-.993.161-1.349.352-1.192.643-2.162 1.56-3.08 2.49.433-1.12.636-2.325.488-3.309-.018-.117-.063-.433-.348-.59-.174-.096-.392-.1-.615-.012-.577.232-.837.804-1.01 1.337-.523 1.564-.823 3.2-1.104 4.794a.32.32 0 00-.16.129c-.595.348-1.188.613-1.728.81.125-.139.24-.29.344-.45.348-.551.566-1.22.685-2.097.074-.54.137-1.34-.152-2.078-.13-.326-.37-.525-.633-.51-.252.004-.422.176-.489.239-.81.811-1.126 1.945-1.31 2.845-.045.224-.086.448-.127.672-.126.697-.255 1.354-.503 1.971-1.36.264-2.71.36-3.91.411a.346.346 0 00.015.69h.014c1.289-.055 2.744-.158 4.214-.462.007 0 .015-.004.022-.004.215-.044.426-.095.64-.15l.356.337c1.17 1.116 2.381 2.273 3.848 3.05a.79.79 0 00.37.107.498.498 0 00.267-.073c.114-.07.3-.242.244-.632-.111-.792-.592-1.56-1.352-2.154-.655-.51-1.433-.841-2.177-1.124a11.535 11.535 0 001.704-.811c.907.36 1.929.602 3.195.764.4.05.826.091 1.255.091.652 0 1.319-.091 1.926-.381a.342.342 0 00.196-.294.318.318 0 00-.16-.309zm-.593-4.684c.175-.092.363-.187.556-.238-.119.29-.389.587-.807.899-.515.385-1.222.753-2.011 1.057.692-.657 1.43-1.266 2.263-1.718zm-4.236-.48c.126-.383.297-.786.611-.911a.683.683 0 01.011.062c.219 1.48-.466 3.613-1.566 4.886l-.022.015c.248-1.358.53-2.738.966-4.053zm-4.647 4.265c.04-.22.082-.44.126-.657.163-.793.433-1.788 1.096-2.47 0 .003 0 .003.004.007.178.451.21.987.11 1.736-.103.775-.288 1.355-.584 1.82a2.315 2.315 0 01-1.033.908c.118-.448.2-.903.281-1.344zm4.17 5.022c-1.211-.68-2.263-1.645-3.274-2.61.07.026.145.051.219.08.803.302 1.451.592 2 1.021.551.433.921.962 1.055 1.51zm2.18-3.906a14.483 14.483 0 01-1.984-.374 6.653 6.653 0 014.029.385c-.667.125-1.389.07-2.044-.01zM1.581 23.756c.873 0 1.581-.702 1.581-1.567 0-.866-.708-1.568-1.58-1.568-.874 0-1.582.702-1.582 1.568 0 .865.708 1.567 1.581 1.567zm91.403 0c.873 0 1.58-.702 1.58-1.567 0-.866-.707-1.568-1.58-1.568-.874 0-1.582.702-1.582 1.568 0 .865.708 1.567 1.582 1.567z" fill="#3A5B62"/></svg>