<svg width="22" height="16" fill="none" xmlns="http://www.w3.org/2000/svg"><g id="Group"><path id="Vector" d="M1.61 0a1.43 1.43 0 00-.587.125l9.432 9.173c.34.33.768.33 1.107 0L20.977.125A1.437 1.437 0 0020.392 0H1.61zM.017 1.577a2.16 2.16 0 00-.017.27v12.307c0 .259.043.508.126.73L6.674 8.04.017 1.577zm21.966 0l-6.64 6.452 6.531 6.856a2.1 2.1 0 00.126-.73V1.845a2.2 2.2 0 00-.017-.27zM14.111 9.23l-1.51 1.471c-.915.89-2.27.889-3.185 0L7.915 9.24l-6.456 6.75c.05.005.1.01.15.01h18.782a1.4 1.4 0 00.159-.01l-6.44-6.759z" fill="#fff"/></g></svg>