<svg width="154" height="17" fill="none" xmlns="http://www.w3.org/2000/svg"><path d="M4.66 16.74a6.235 6.235 0 01-2.22-.4 3.96 3.96 0 01-1.7-1.22c-.44-.547-.66-1.227-.66-2.04 0-.72.16-1.28.48-1.68.32-.413.72-.7 1.2-.86.48-.16.947-.24 1.4-.24-.427.453-.753.92-.98 1.4-.213.48-.32.94-.32 1.38 0 .453.113.88.34 1.28.24.387.593.7 1.06.94.467.253 1.047.38 1.74.38.6 0 1.18-.1 1.74-.3.573-.2 1.04-.5 1.4-.9.373-.4.56-.9.56-1.5 0-.547-.16-1.013-.48-1.4a4.447 4.447 0 00-1.2-1.06c-.493-.32-1.013-.62-1.56-.9a17.905 17.905 0 01-1.56-.94c-.493-.333-.9-.72-1.22-1.16-.307-.44-.46-.967-.46-1.58 0-.547.133-1.127.4-1.74A6.47 6.47 0 013.8 2.44a5.796 5.796 0 011.84-1.32C6.36.773 7.16.6 8.04.6c.92 0 1.567.193 1.94.58.373.387.56.893.56 1.52 0 .493-.087 1.02-.26 1.58-.173.56-.387 1.093-.64 1.6-.24.507-.473.94-.7 1.3-.293-.067-.513-.18-.66-.34-.147-.173-.22-.4-.22-.68s.053-.593.16-.94c.12-.347.253-.707.4-1.08.16-.373.293-.733.4-1.08.12-.36.18-.673.18-.94 0-.24-.073-.427-.22-.56-.133-.133-.413-.2-.84-.2-.64 0-1.227.14-1.76.42-.533.28-1 .633-1.4 1.06-.387.427-.687.88-.9 1.36-.213.467-.32.893-.32 1.28 0 .48.153.893.46 1.24.307.333.7.64 1.18.92.493.28 1.007.56 1.54.84.547.28 1.06.593 1.54.94.493.347.893.76 1.2 1.24.307.48.46 1.067.46 1.76 0 .693-.16 1.307-.48 1.84-.307.533-.727.98-1.26 1.34a5.911 5.911 0 01-1.78.84c-.64.2-1.293.3-1.96.3zm8.708-.8c-.44 0-.82-.147-1.14-.44-.334-.293-.5-.733-.5-1.32 0-.467.106-.973.32-1.52a7.725 7.725 0 01.88-1.62c.373-.533.8-1.013 1.28-1.44.48-.44.993-.793 1.54-1.06a3.712 3.712 0 011.64-.4c.573 0 1.06.147 1.46.44.4.293.6.68.6 1.16 0 .36-.127.62-.38.78-.254.16-.554.207-.9.14.026-.12.046-.24.06-.36.026-.12.04-.247.04-.38 0-.267-.054-.507-.16-.72-.107-.213-.334-.32-.68-.32-.374 0-.754.127-1.14.38-.387.253-.76.587-1.12 1-.347.4-.66.847-.94 1.34-.28.48-.5.953-.66 1.42-.16.467-.24.887-.24 1.26 0 .427.153.64.46.64.306 0 .646-.147 1.02-.44a8.291 8.291 0 001.12-1.14c.386-.453.753-.913 1.1-1.38.346-.48.646-.887.9-1.22.04-.067.093-.1.16-.1.053.013.153.047.3.1.16.04.306.107.44.2.133.093.2.213.2.36 0 .133-.06.307-.18.52-.107.2-.24.427-.4.68-.147.24-.28.487-.4.74-.107.24-.16.473-.16.7 0 .173.046.34.14.5.093.147.246.22.46.22.32 0 .766-.233 1.34-.7.586-.48 1.18-1.287 1.78-2.42l.38.38c-.32.72-.707 1.36-1.16 1.92-.44.547-.907.973-1.4 1.28-.494.32-.994.48-1.5.48-.547 0-.954-.173-1.22-.52a2.031 2.031 0 01-.44-1.12v-.1c-.534.64-1.027 1.147-1.48 1.52-.44.373-.914.56-1.42.56zm10.146-.16c-.493 0-.84-.227-1.04-.68-.186-.44-.28-1.013-.28-1.72 0-.147.007-.407.02-.78l.06-1.6c.014-.4.054-.673.12-.82.08-.147.294-.22.64-.22.32 0 .507.067.56.2.067.12.1.373.1.76 0 .4-.02.827-.06 1.28-.026.453-.04.893-.04 1.32 0 .413.02.72.06.92.04.187.14.28.3.28.24 0 .5-.127.78-.38.28-.267.56-.6.84-1 .294-.413.567-.853.82-1.32.267-.48.5-.94.7-1.38.027-.907.134-1.513.32-1.82.187-.307.427-.46.72-.46.334 0 .56.107.68.32.12.213.18.4.18.56 0 .2-.053.38-.16.54-.106.16-.213.38-.32.66-.106.28-.16.707-.16 1.28 0 .187.014.393.04.62.04.213.12.4.24.56.134.147.327.22.58.22.267 0 .52-.107.76-.32.254-.227.52-.613.8-1.16l.22.18c-.306.733-.653 1.247-1.04 1.54-.373.293-.733.44-1.08.44-.44 0-.8-.173-1.08-.52-.266-.36-.473-.807-.62-1.34-.32.6-.686 1.193-1.1 1.78-.4.587-.82 1.073-1.26 1.46-.44.4-.873.6-1.3.6zm9.944.1c-.854 0-1.514-.233-1.98-.7-.454-.453-.68-1.027-.68-1.72 0-.587.146-1.207.44-1.86a7.59 7.59 0 011.22-1.86 6.71 6.71 0 011.68-1.42c.613-.36 1.226-.54 1.84-.54.346 0 .673.093.98.28.32.173.48.527.48 1.06 0 .507-.147.98-.44 1.42a4.51 4.51 0 01-1.18 1.18 7.363 7.363 0 01-1.64.86 7.677 7.677 0 01-1.78.42 3.888 3.888 0 00-.04.18v.28c0 .067.006.187.02.36.026.16.086.333.18.52.093.187.246.347.46.48.213.133.506.2.88.2.56 0 1.12-.153 1.68-.46a6.727 6.727 0 001.6-1.26c.506-.52.926-1.1 1.26-1.74l.4.32c-.36.8-.827 1.5-1.4 2.1a6.293 6.293 0 01-1.88 1.4c-.68.333-1.38.5-2.1.5zm-.84-3.62c.346-.04.733-.16 1.16-.36a6.2 6.2 0 001.22-.76c.4-.307.726-.64.98-1 .253-.373.38-.747.38-1.12 0-.147-.027-.247-.08-.3-.054-.053-.14-.08-.26-.08-.307 0-.627.113-.96.34-.334.213-.66.5-.98.86-.32.347-.607.733-.86 1.16a7.185 7.185 0 00-.6 1.26zm16.991 4.48c-.733 0-1.24-.147-1.52-.44-.28-.28-.426-.647-.44-1.1 0-.387.074-.847.22-1.38.16-.547.32-1.067.48-1.56.32-.947.654-1.88 1-2.8.347-.92.694-1.807 1.04-2.66.36-.853.7-1.667 1.02-2.44.334-.773.64-1.487.92-2.14-.906.013-1.693.04-2.36.08-.653.04-1.253.093-1.8.16-.546.053-1.113.133-1.7.24.067-.56.327-.987.78-1.28.467-.307 1.087-.52 1.86-.64.774-.12 1.66-.18 2.66-.18.52 0 1.007.013 1.46.04.467.013.907.04 1.32.08.427.04.84.08 1.24.12.84.08 1.507.133 2 .16.507.027.867.04 1.08.04-.4.373-.906.647-1.52.82-.6.16-1.233.26-1.9.3-.666.04-1.3.06-1.9.06a64.153 64.153 0 00-1.76 4.9 139.782 139.782 0 00-1.92 6.66c-.106.44-.186.847-.24 1.22-.053.36-.08.747-.08 1.16v.22c.014.093.034.213.06.36zm7.023-.98c-.293 0-.506-.227-.64-.68-.12-.453-.18-.98-.18-1.58 0-.613.1-1.353.3-2.22.214-.867.494-1.78.84-2.74.36-.96.754-1.9 1.18-2.82.44-.92.887-1.753 1.34-2.5.467-.76.907-1.367 1.32-1.82.427-.453.8-.68 1.12-.68.28 0 .494.153.64.46.147.307.22.627.22.96 0 .36-.086.807-.26 1.34-.16.52-.386 1.08-.68 1.68-.293.6-.64 1.193-1.04 1.78-.386.573-.813 1.1-1.28 1.58a6.62 6.62 0 01-1.42 1.16c-.173.453-.313.88-.42 1.28a8.896 8.896 0 00-.26 2.12v.22a.97.97 0 01.02.2c.054-.08.14-.287.26-.62s.28-.72.48-1.16c.214-.453.474-.893.78-1.32.307-.44.667-.8 1.08-1.08.414-.293.887-.44 1.42-.44.454 0 .807.107 1.06.32.254.2.434.453.54.76.107.293.16.593.16.9 0 .427-.073.827-.22 1.2-.133.373-.273.727-.42 1.06-.133.32-.2.627-.2.92 0 .24.054.407.16.5.107.093.234.14.38.14.294 0 .634-.147 1.02-.44.4-.293.794-.68 1.18-1.16.4-.493.74-1.033 1.02-1.62l.32.34c-.306.667-.666 1.28-1.08 1.84-.413.56-.866 1.007-1.36 1.34-.493.333-1.026.5-1.6.5-.506 0-.893-.133-1.16-.4a1.36 1.36 0 01-.4-1c0-.28.047-.587.14-.92.107-.347.207-.693.3-1.04.094-.347.14-.66.14-.94 0-.32-.073-.54-.22-.66a.72.72 0 00-.5-.18c-.333 0-.633.133-.9.4a3.712 3.712 0 00-.72 1c-.213.413-.413.853-.6 1.32a42.19 42.19 0 01-.56 1.3 4.305 4.305 0 01-.6 1c-.2.267-.433.4-.7.4zm1.88-7.36c.347-.307.68-.673 1-1.1.32-.427.614-.867.88-1.32.28-.467.52-.913.72-1.34.214-.44.38-.833.5-1.18s.187-.613.2-.8V2.6c-.08 0-.253.167-.52.5-.253.32-.553.76-.9 1.32a25.476 25.476 0 00-1.02 1.86 18.1 18.1 0 00-.86 2.12zm10.303 7.48c-.853 0-1.513-.233-1.98-.7-.453-.453-.68-1.027-.68-1.72 0-.587.147-1.207.44-1.86a7.59 7.59 0 011.22-1.86 6.71 6.71 0 011.68-1.42c.614-.36 1.227-.54 1.84-.54.347 0 .674.093.98.28.32.173.48.527.48 1.06 0 .507-.146.98-.44 1.42a4.51 4.51 0 01-1.18 1.18 7.363 7.363 0 01-1.64.86 7.677 7.677 0 01-1.78.42 3.888 3.888 0 00-.04.18v.28c0 .067.007.187.02.36.027.16.087.333.18.52.094.187.247.347.46.48.214.133.507.2.88.2.56 0 1.12-.153 1.68-.46a6.727 6.727 0 001.6-1.26 7.32 7.32 0 001.26-1.74l.4.32a7.4 7.4 0 01-1.4 2.1 6.293 6.293 0 01-1.88 1.4c-.68.333-1.38.5-2.1.5zm-.84-3.62c.347-.04.734-.16 1.16-.36.427-.2.834-.453 1.22-.76.4-.307.727-.64.98-1 .254-.373.38-.747.38-1.12 0-.147-.026-.247-.08-.3-.053-.053-.14-.08-.26-.08-.306 0-.626.113-.96.34-.333.213-.66.5-.98.86-.32.347-.606.733-.86 1.16a7.185 7.185 0 00-.6 1.26zm17.252 4.48a2.95 2.95 0 01-.52-.06 2.338 2.338 0 01-.66-.24 1.341 1.341 0 01-.54-.52c-.147-.24-.22-.56-.22-.96 0-.333.067-.767.2-1.3.133-.547.36-1.34.68-2.38.24-.787.473-1.56.7-2.32.24-.773.433-1.573.58-2.4.16-.827.24-1.707.24-2.64a8.02 8.02 0 00-.1-1.38c-.067-.373-.193-.653-.38-.84-.173-.2-.42-.3-.74-.3s-.6.087-.84.26c-.24.173-.44.407-.6.7-.16.28-.28.593-.36.94-.08.347-.12.693-.12 1.04 0 .587.1 1.073.3 1.46-.653 0-1.127-.153-1.42-.46-.293-.307-.44-.687-.44-1.14 0-.4.1-.813.3-1.24a4.221 4.221 0 012.06-2.02c.467-.227.967-.34 1.5-.34.907 0 1.593.333 2.06 1 .48.667.72 1.613.72 2.84 0 .92-.127 1.88-.38 2.88a48.794 48.794 0 01-1.4 4.66 24.516 24.516 0 00-.48 1.58 6.577 6.577 0 00-.2 1.6c0 .253.027.427.08.52.067.107.187.16.36.16.36 0 .74-.153 1.14-.46.413-.307.827-.72 1.24-1.24.413-.52.807-1.1 1.18-1.74a21.27 21.27 0 001.86-3.88c.213-.613.353-1.147.42-1.6.507 0 .9.14 1.18.42.28.28.42.547.42.8 0 .133-.06.36-.18.68-.107.32-.293.793-.56 1.42a80.136 80.136 0 00-.66 1.62c-.227.56-.42 1.12-.58 1.68a5.96 5.96 0 00-.22 1.54c0 .267.033.46.1.58.08.12.22.18.42.18.373 0 .8-.187 1.28-.56.493-.36 1-.853 1.52-1.48.52-.64 1.027-1.353 1.52-2.14.493-.8.94-1.627 1.34-2.48.4-.853.713-1.693.94-2.52.24-.827.36-1.58.36-2.26 0-.733-.133-1.253-.4-1.56a2.112 2.112 0 00-.96-.66c.24-.387.493-.667.76-.84.28-.187.527-.28.74-.28.307 0 .62.2.94.6.333.387.5 1 .5 1.84 0 .707-.14 1.52-.42 2.44-.267.92-.64 1.88-1.12 2.88a24.937 24.937 0 01-1.62 2.9c-.6.933-1.247 1.78-1.94 2.54-.68.76-1.367 1.36-2.06 1.8-.693.453-1.353.68-1.98.68a1.99 1.99 0 01-.94-.22 1.539 1.539 0 01-.64-.6 1.766 1.766 0 01-.22-.9c0-.16.02-.327.06-.5a7.53 7.53 0 01.14-.52c-.653.827-1.313 1.487-1.98 1.98-.653.507-1.307.76-1.96.76zm23.734-.76c-.814 0-1.44-.22-1.88-.66a2.48 2.48 0 01-.76-1.56 6.426 6.426 0 01-1.96 1.56c-.734.373-1.474.56-2.22.56-.867 0-1.534-.233-2-.7-.454-.453-.68-1.02-.68-1.7 0-.587.146-1.207.44-1.86a7.718 7.718 0 011.22-1.84 6.685 6.685 0 011.68-1.42c.613-.373 1.24-.56 1.88-.56.346 0 .666.087.96.26.306.173.46.527.46 1.06 0 .493-.147.96-.44 1.4a4.4 4.4 0 01-1.18 1.14 7.27 7.27 0 01-1.64.82 7.68 7.68 0 01-1.78.42 2.014 2.014 0 00-.04.22v.28c0 .24.04.487.12.74.08.24.226.447.44.62.226.173.56.26 1 .26.706 0 1.393-.227 2.06-.68a7.351 7.351 0 001.78-1.74c.12-.547.333-1.087.64-1.62a6.95 6.95 0 011.12-1.46c.453-.44.94-.793 1.46-1.06a3.587 3.587 0 011.62-.4c.36 0 .686.087.98.26.306.173.46.533.46 1.08 0 .653-.234 1.233-.7 1.74-.454.507-1.047.92-1.78 1.24a8.232 8.232 0 01-2.3.6c-.014.067-.027.14-.04.22v.26c0 .24.033.487.1.74.08.253.226.473.44.66.213.173.533.26.96.26.573 0 1.146-.167 1.72-.5a6.771 6.771 0 001.62-1.3 7.834 7.834 0 001.24-1.76l.36.28c-.36.8-.827 1.513-1.4 2.14-.56.613-1.18 1.1-1.86 1.46-.68.36-1.38.54-2.1.54zm-7.68-3.72a9.775 9.775 0 001.18-.52c.426-.227.826-.48 1.2-.76.386-.293.7-.6.94-.92.24-.333.36-.673.36-1.02 0-.107-.027-.187-.08-.24-.04-.067-.134-.1-.28-.1-.28 0-.587.107-.92.32-.32.2-.64.473-.96.82a7.557 7.557 0 00-.84 1.16 6.304 6.304 0 00-.6 1.26zm6.86 0c.346-.12.713-.267 1.1-.44.4-.187.773-.4 1.12-.64.346-.24.633-.507.86-.8.226-.307.34-.64.34-1 0-.16-.027-.267-.08-.32-.054-.067-.154-.1-.3-.1-.374 0-.76.16-1.16.48a4.92 4.92 0 00-1.1 1.22 6.315 6.315 0 00-.78 1.6zm12.533 3.5a1.59 1.59 0 01-1.08-.4 2.954 2.954 0 01-.74-1 5.97 5.97 0 01-.42-1.22 5.222 5.222 0 01-.14-1.1c.186-.04.42-.1.7-.18.28-.08.566-.187.86-.32.293-.147.533-.32.72-.52.2-.213.3-.467.3-.76a.75.75 0 00-.24-.58c-.147-.147-.36-.22-.64-.22-.374 0-.727.127-1.06.38-.334.24-.647.56-.94.96-.28.4-.54.833-.78 1.3-.227.467-.434.92-.62 1.36-.174.44-.32.82-.44 1.14-.147.4-.287.667-.42.8-.134.147-.327.22-.58.22a.944.944 0 01-.34-.08c-.12-.053-.227-.187-.32-.4-.08-.213-.12-.553-.12-1.02 0-.813.113-1.707.34-2.68.226-.973.526-1.96.9-2.96a33.53 33.53 0 011.26-2.9c.453-.92.913-1.747 1.38-2.48.466-.733.9-1.313 1.3-1.74.413-.427.753-.64 1.02-.64.226 0 .413.14.56.42.16.267.24.613.24 1.04 0 .453-.1.96-.3 1.52a8.383 8.383 0 01-.86 1.68 9.665 9.665 0 01-1.3 1.6 8.35 8.35 0 01-1.68 1.3c-.374.867-.66 1.727-.86 2.58-.2.84-.327 1.587-.38 2.24.24-.547.513-1.107.82-1.68.306-.573.646-1.107 1.02-1.6a5.483 5.483 0 011.2-1.22c.44-.307.906-.46 1.4-.46.533 0 1 .187 1.4.56.4.373.6.84.6 1.4 0 .4-.107.747-.32 1.04-.214.293-.48.54-.8.74-.307.187-.62.327-.94.42a3.82 3.82 0 01-.82.16c.04.173.093.393.16.66.08.267.18.527.3.78s.273.467.46.64c.186.173.406.26.66.26.333 0 .673-.153 1.02-.46.36-.307.706-.713 1.04-1.22.346-.507.653-1.067.92-1.68l.28.34a8.55 8.55 0 01-.94 1.92c-.387.613-.82 1.107-1.3 1.48-.48.387-.974.58-1.48.58zm-2.86-8.84c.36-.32.74-.713 1.14-1.18.4-.48.74-.987 1.02-1.52.293-.547.446-1.067.46-1.56V2.6c-.134.053-.347.287-.64.7-.28.4-.594.913-.94 1.54-.347.627-.694 1.32-1.04 2.08zm8.978 8.96c-.853 0-1.513-.233-1.98-.7-.453-.453-.68-1.027-.68-1.72 0-.587.147-1.207.44-1.86a7.59 7.59 0 011.22-1.86 6.72 6.72 0 011.68-1.42c.613-.36 1.227-.54 1.84-.54.347 0 .673.093.98.28.32.173.48.527.48 1.06 0 .507-.147.98-.44 1.42a4.51 4.51 0 01-1.18 1.18 7.356 7.356 0 01-1.64.86 7.68 7.68 0 01-1.78.42 3.888 3.888 0 00-.04.18v.28c0 .067.007.187.02.36.027.16.087.333.18.52s.247.347.46.48c.213.133.507.2.88.2.56 0 1.12-.153 1.68-.46a6.727 6.727 0 001.6-1.26 7.32 7.32 0 001.26-1.74l.4.32c-.36.8-.827 1.5-1.4 2.1a6.297 6.297 0 01-1.88 1.4c-.68.333-1.38.5-2.1.5zm-.84-3.62c.347-.04.733-.16 1.16-.36a6.17 6.17 0 001.22-.76c.4-.307.727-.64.98-1 .253-.373.38-.747.38-1.12 0-.147-.027-.247-.08-.3-.053-.053-.14-.08-.26-.08-.307 0-.627.113-.96.34-.333.213-.66.5-.98.86-.32.347-.607.733-.86 1.16a7.228 7.228 0 00-.6 1.26zm12.976 3.14c-.52 0-.92-.133-1.2-.4-.266-.253-.4-.58-.4-.98 0-.267.047-.547.14-.84l.28-.92a3 3 0 00.14-.88c0-.293-.073-.493-.22-.6a.692.692 0 00-.48-.18c-.4 0-.813.167-1.24.5-.413.32-.82.727-1.22 1.22a21.723 21.723 0 00-1.1 1.54 44.505 44.505 0 00-.9 1.44c-.253 0-.493-.047-.72-.14a1.236 1.236 0 01-.58-.44c.014-.067.094-.267.24-.6.134-.347.287-.753.46-1.22.174-.48.327-.98.46-1.5.134-.52.2-.993.2-1.42a1.66 1.66 0 01.42-.32c.2-.107.407-.16.62-.16.467 0 .7.2.7.6 0 .16-.033.4-.1.72-.053.307-.133.66-.24 1.06.347-.467.727-.907 1.14-1.32a6.21 6.21 0 011.28-1c.454-.267.907-.4 1.36-.4.574 0 .994.193 1.26.58.28.387.42.813.42 1.28 0 .4-.066.773-.2 1.12-.133.347-.266.673-.4.98a2.46 2.46 0 00-.18.9c0 .213.047.367.14.46.107.08.22.12.34.12.32 0 .654-.153 1-.46.347-.307.674-.693.98-1.16.32-.48.6-.96.84-1.44l.34.28c-.28.653-.6 1.253-.96 1.8-.346.533-.74.967-1.18 1.3-.426.32-.906.48-1.44.48zm4.993.2a1.74 1.74 0 01-.78-.2 1.566 1.566 0 01-.64-.58c-.186-.267-.28-.607-.28-1.02 0-.44.107-.933.32-1.48.214-.547.5-1.093.86-1.64.374-.547.8-1.047 1.28-1.5a7.105 7.105 0 011.56-1.1c.547-.28 1.1-.42 1.66-.42.307 0 .547.053.72.16.174.093.26.253.26.48a.883.883 0 01-.04.24c-.026.08-.093.153-.2.22-.053-.08-.146-.133-.28-.16a1.45 1.45 0 00-.42-.06c-.44 0-.86.127-1.26.38-.4.24-.766.553-1.1.94a7.67 7.67 0 00-.88 1.26c-.24.453-.426.893-.56 1.32-.133.413-.2.773-.2 1.08 0 .253.054.46.16.62.107.147.267.22.48.22.36 0 .787-.207 1.28-.62.507-.427 1.02-1.033 1.54-1.82.534-.8 1.014-1.753 1.44-2.86.294-.76.6-1.533.92-2.32.32-.8.64-1.567.96-2.3.32-.733.634-1.387.94-1.96.32-.573.62-1.027.9-1.36.294-.347.56-.52.8-.52.147 0 .274.06.38.18.12.107.18.247.18.42 0 .227-.113.593-.34 1.1a35.752 35.752 0 01-.84 1.78c-.333.693-.7 1.447-1.1 2.26-.386.8-.753 1.627-1.1 2.48a24.08 24.08 0 00-.84 2.5 9.096 9.096 0 00-.32 2.3c0 .32.027.54.08.66.067.107.174.16.32.16.294 0 .62-.113.98-.34.36-.227.727-.56 1.1-1a8.16 8.16 0 001.02-1.62l.38.32a7.437 7.437 0 01-1.12 1.94c-.453.56-.94.993-1.46 1.3-.52.32-1.033.48-1.54.48-.546 0-.926-.173-1.14-.52-.213-.347-.32-.753-.32-1.22 0-.213.014-.427.04-.64.04-.227.08-.447.12-.66-.413.6-.853 1.14-1.32 1.62a6.85 6.85 0 01-1.34 1.1c-.44.267-.86.4-1.26.4z" fill="#4E6E77"/></svg>