<svg width="32" height="30" fill="none" xmlns="http://www.w3.org/2000/svg"><path d="M8.525 20.726h3.463v3.14H8.524v-3.14zm-6.65 0h3.462v3.14H1.875v-3.14z" fill="#CAD3DB"/><path d="M6.834 20.435h7.072v9.348H6.833v-9.348zM8 0h15.764v7.741H8V0z" fill="#CAD3DB"/><path d="M26.52 13.034a4.261 4.261 0 01-2.158 2.203 4.317 4.317 0 01-3.092.183 4.276 4.276 0 01-2.408-1.931 4.283 4.283 0 01-3.682 2.132 4.285 4.285 0 01-3.71-2.081 4.259 4.259 0 01-2.414 1.897 4.3 4.3 0 01-3.073-.21 4.243 4.243 0 01-2.128-2.207 3.412 3.412 0 01-2.165 1.043v15.72h8.766v-9.927a.584.584 0 01.575-.59h8.238c.332 0 .604.261.616.59v9.926h8.766V14.06a3.239 3.239 0 01-2.13-1.025zM8.762 24.451a.582.582 0 01-.173.413.592.592 0 01-.416.171H3.532a.587.587 0 01-.59-.584v-4.309c0-.322.265-.584.59-.584h4.64a.585.585 0 01.59.584v4.309zm18.563-4.309v4.309a.582.582 0 01-.173.413.592.592 0 01-.417.171h-4.64a.587.587 0 01-.59-.584v-4.309c0-.322.264-.584.59-.584h4.64a.584.584 0 01.589.584z" fill="#CAD3DB"/><path d="M28.736 3.921a.888.888 0 00-.76-.43H24.97v4.674a.61.61 0 01-.616.585H7.466a.61.61 0 01-.615-.585V3.492H4.429a.883.883 0 00-.724.373L.157 8.905A.865.865 0 000 9.407v1.366c0 .725.371 1.401.986 1.794.616.392 1.39.447 2.056.146a2.133 2.133 0 001.234-1.637l.024-.342a.587.587 0 01.587-.546h.02c.318.01.57.27.57.585 0 .14-.01.282-.027.422l-.014.205a3.062 3.062 0 001.557 2.64 3.116 3.116 0 003.086-.01 3.06 3.06 0 001.541-2.65c0-.322.264-.584.59-.584.325 0 .589.262.589.585-.004.816.32 1.6.9 2.177a3.107 3.107 0 004.384-.001c.58-.578.904-1.362.9-2.177 0-.323.263-.585.589-.585h.06c.326 0 .59.262.59.585a3.06 3.06 0 001.534 2.658 3.12 3.12 0 003.09.014 3.061 3.061 0 001.56-2.643l-.003-.02a3.297 3.297 0 01-.058-.616.586.586 0 01.56-.58.588.588 0 01.616.523l.049.5a2.136 2.136 0 001.297 1.534 2.167 2.167 0 002.008-.21 2.121 2.121 0 00.947-1.767V9.347c0-.157-.04-.31-.12-.446l-2.966-4.98z" fill="#CAD3DB"/></svg>