<svg width="21" height="19" fill="none" xmlns="http://www.w3.org/2000/svg"><path d="M18.035.141a2 2 0 012.12 2.122l-.21 3.333a.616.616 0 11-1.23-.077l.03-.46c.063-.99-1.13-1.532-1.834-.834l-4.42 4.383a1.248 1.248 0 01-1.75.007l-1.112-1.09a2 2 0 00-2.808.007l-5.775 5.725a.614.614 0 11-.864-.873l6.634-6.572a2 2 0 012.807-.008l.58.568a2 2 0 002.808-.008l3.005-2.979c.707-.701.168-1.905-.826-1.843l-.469.029a.61.61 0 01-.075-1.218l3.39-.212zM1.52 16.276a1.609 1.609 0 113.217 0v.708a1.609 1.609 0 01-3.217 0v-.709zm4.456-2.944a1.609 1.609 0 013.218 0v3.653a1.609 1.609 0 11-3.218 0v-3.653zm4.456 1.471a1.609 1.609 0 013.218 0v2.18a1.609 1.609 0 01-3.218 0v-2.18zm4.455-3.68a1.609 1.609 0 013.218 0v5.862a1.609 1.609 0 11-3.218 0v-5.862z" fill="#D4DCE2"/></svg>