<svg width="19" height="15" fill="none" xmlns="http://www.w3.org/2000/svg"><path d="M18.886 1.774a7.275 7.275 0 01-2.122.6A3.794 3.794 0 0018.388.277a7.25 7.25 0 01-2.344.918A3.627 3.627 0 0013.354 0c-2.038 0-3.69 1.696-3.69 3.786 0 .296.034.584.097.864C6.695 4.49 3.976 2.981 2.156.691a3.84 3.84 0 00-.5 1.907c0 1.314.65 2.471 1.642 3.153a3.657 3.657 0 01-1.673-.473v.044c0 1.837 1.272 3.367 2.959 3.715a3.553 3.553 0 01-.97.136c-.238 0-.47-.028-.695-.07.47 1.501 1.832 2.598 3.445 2.63a7.293 7.293 0 01-5.462 1.568A10.28 10.28 0 006.558 15c6.787 0 10.499-5.77 10.499-10.776 0-.164-.005-.328-.013-.489a7.4 7.4 0 001.842-1.961z" fill="#3A5B62"/></svg>