<svg width="20" height="13" fill="none" xmlns="http://www.w3.org/2000/svg"><path d="M19.312 2.234C19.137 1.341 18.301.69 17.33.487 15.878.203 13.191 0 10.284 0c-2.906 0-5.636.203-7.09.487-.969.203-1.806.813-1.982 1.747A24.635 24.635 0 00.86 6.5c0 1.828.176 3.25.396 4.266.177.893 1.013 1.544 1.982 1.747 1.541.284 4.184.487 7.091.487 2.908 0 5.55-.203 7.092-.487.968-.203 1.804-.813 1.982-1.747.175-1.016.395-2.48.44-4.266-.09-1.828-.31-3.25-.53-4.266zM7.906 9.344V3.656L13.28 6.5 7.906 9.344z" fill="#3A5B62"/></svg>